<svg width="458" height="109" viewBox="0 0 458 109" fill="none" xmlns="http://www.w3.org/2000/svg">
<g clip-path="url(#clip0_101_421)">
<path d="M39.2 68.3H38.8999L12.8 11.4H12.6V57.3C12.6 61.7 13.1 64.4 14 65.6C15 66.7 17.7 67.2 22 67.3V68.4H0.699951V67.3C4.69995 67 7.19996 66.3 8.29996 65.2C9.49996 64.1 10.1 61.5 10.1 57.3V14.4C10.1 10.2 9.49995 7.39999 8.39995 5.79999C7.29995 4.19999 4.69995 3.39999 0.699951 3.39999V2.29999H14.5L40.5 59.9L67.1 2.29999H82.5V3.39999C78.6 3.49999 75.9999 4.2 74.7999 5.5C73.6999 6.8 73.1 9.7 73.1 14V56.8C73.1 61.5 73.6 64.4 74.5 65.5C75.4 66.5 78 67.1 82.5 67.3V68.4H58.8999V67.3C62.9999 67.2 65.5 66.5 66.6 65.2C67.7 63.9 68.2999 61 68.2999 56.7V6.79999H68L39.2 68.3Z" fill="black"/>
<path d="M90.5999 35.3C90.5999 25.9 93.4999 17.8 99.1999 11C105 4.2 112.3 0.799988 121 0.799988C129.9 0.799988 137.2 4.09999 142.7 10.8C148.3 17.4 151.2 25.6 151.2 35.3C151.2 44.9 148.4 53.1 142.7 59.7C137 66.4 129.7 69.8 121 69.8C112.2 69.8 104.9 66.4 99.1999 59.7C93.3999 53 90.5999 44.8 90.5999 35.3ZM121 67.8C127.8 67.8 133.5 64.9 137.9 59.2C142.4 53.5 144.6 45.5 144.6 35.3C144.6 25.3 142.4 17.3 138.1 11.5C133.8 5.7 128.2 2.79999 121 2.79999C113.6 2.79999 107.7 5.80001 103.5 11.7C99.2998 17.6 97.1999 25.4 97.1999 35.3C97.1999 45.5 99.4998 53.5 104 59.2C108.6 64.9 114.2 67.8 121 67.8Z" fill="black"/>
<path d="M169 14.8H168.8V56.7C168.8 61.5 169.3 64.4 170.2 65.5C171.3 66.6 173.9 67.1 178.2 67.2V68.3H156.9V67.2C160.8 67.1 163.3 66.5 164.5 65.3C165.7 64.2 166.3 61.4 166.3 56.7V11.5C164.8 9.6 163.6 8.10001 162.6 7.20001C160.3 4.60001 157.1 3.29999 153 3.29999V2.20001H165.3L212.2 60H212.4V14C212.4 9.6 211.8 6.8 210.6 5.5C209.5 4.2 207 3.39999 203 3.29999V2.20001H224.3V3.29999C220.4 3.39999 217.8 4.09999 216.6 5.39999C215.5 6.69999 214.9 9.6 214.9 14V69.3H213.5L169 14.8Z" fill="black"/>
<path d="M274.1 54.4L270.4 45.4H242.5L238.5 55.8C237 59.4 236.3 61.8 236.3 63.2C236.3 64.6 236.8 65.6 237.8 66.2C238.8 66.8 240.7 67.1 243.4 67.2V68.3H225V67.2C227.5 66.9 229.4 66.1 230.8 64.6C232.2 63.1 233.7 60.5 235.1 56.8L257 0.799988H257.5L279.1 54.6C281.2 59.9 282.8 63.1 283.9 64.5C285 65.8 287.3 66.7 290.9 67.2V68.3H269.9V67.2C272.7 67.1 274.5 66.7 275.4 66.2C276.3 65.6 276.7 64.5 276.7 62.8C276.7 61.4 275.8 58.7 274.1 54.4ZM243.3 43.4H269.5L256.2 10L243.3 43.4Z" fill="black"/>
<path d="M311.6 11.9V57.2C311.6 60.6 311.9 62.9 312.5 64C313.1 65.1 314.2 65.7 315.8 65.7H334C337.9 65.7 341.1 64.5 343.7 62C346.3 59.5 348.7 55.6 350.9 50L351.8 50.3L346.1 68.2H297.3V67.1C301 67 303.5 66.4 304.8 65.1C306.1 63.8 306.7 61.2 306.7 57.2V12C306.7 8.5 306.1 6.20001 304.8 5.10001C303.5 3.90001 301 3.30001 297.3 3.20001V2.10001H322.6V3.20001C318 3.30001 315 3.89999 313.6 4.89999C312.3 6.09999 311.6 8.39999 311.6 11.9Z" fill="black"/>
<path d="M372.2 12.1V58.2C372.2 62.1 372.7 64.6 373.7 65.6C374.9 66.6 377.5 67.1 381.6 67.2V68.3H358V67.2C361.8 67.1 364.3 66.4 365.5 65.3C366.7 64.1 367.3 61.8 367.3 58.3V12.2C367.3 8.70001 366.7 6.39999 365.5 5.29999C364.4 4.19999 361.9 3.49999 357.9 3.39999V2.29999H381.5V3.39999C377.8 3.49999 375.3 4.19999 374 5.29999C372.8 6.39999 372.2 8.70001 372.2 12.1Z" fill="black"/>
<path d="M440.4 54.4L436.7 45.4H408.8L404.8 55.8C403.3 59.4 402.6 61.8 402.6 63.2C402.6 64.6 403.1 65.6 404.1 66.2C405.1 66.8 407 67.1 409.7 67.2V68.3H391.3V67.2C393.8 66.9 395.7 66.1 397.1 64.6C398.5 63.1 400 60.5 401.4 56.8L423.3 0.799988H423.8L445.4 54.6C447.5 59.9 449.1 63.1 450.2 64.5C451.3 65.8 453.6 66.7 457.2 67.2V68.3H436.2V67.2C439 67.1 440.8 66.7 441.7 66.2C442.6 65.6 443 64.5 443 62.8C443 61.4 442.1 58.7 440.4 54.4ZM409.6 43.4H435.8L422.5 10L409.6 43.4Z" fill="black"/>
<path d="M116.2 107.6H114.8V96.8H117.8C119 96.8 119.8 96.9 120.2 97.1C120.7 97.3 121 97.7 121.3 98.1C121.6 98.5 121.7 99.1 121.7 99.7C121.7 100.7 121.4 101.6 120.7 102.3C120 103 119 103.3 117.6 103.3H116.3V107.6H116.2ZM116.2 102.3H117.2C118.4 102.3 119.3 102.1 119.7 101.6C120.1 101.1 120.3 100.5 120.3 99.9C120.3 99.3 120.1 98.8 119.8 98.5C119.5 98.1 118.9 98 117.9 98H116.3V102.3H116.2Z" fill="black"/>
<path d="M125 107.6H123.7L128.1 96.8H129.5L133.6 107.6H132.1L131 104.6H126.2L125 107.6ZM126.7 103.6H130.6L128.7 98.6L126.7 103.6Z" fill="black"/>
<path d="M137.8 107.6H136.4V96.8H139.8C140.6 96.8 141.2 96.9 141.7 97.2C142.2 97.5 142.4 97.8 142.7 98.2C142.9 98.6 143.1 99.1 143.1 99.7C143.1 100.1 143 100.5 142.9 100.9C142.7 101.3 142.5 101.6 142.2 102C141.9 102.3 141.4 102.6 140.8 102.8C141 102.9 141.2 103 141.3 103.2C141.4 103.3 141.6 103.5 141.7 103.8C141.8 104.1 142 104.3 142.1 104.5L143.8 107.7H142.2L140.7 104.9C140.3 104.2 139.9 103.6 139.3 103.1H137.9V107.6H137.8ZM137.8 101.9H139.2C139.8 101.9 140.2 101.8 140.5 101.6C140.8 101.4 141 101.2 141.2 100.8C141.4 100.5 141.5 100.1 141.5 99.7C141.5 99.4 141.4 99.1 141.3 98.8C141.2 98.5 141 98.3 140.7 98.1C140.4 97.9 140 97.8 139.3 97.8H137.8V101.9Z" fill="black"/>
<path d="M154.2 107.1C153 107.6 152 107.9 150.9 107.9C149.8 107.9 148.9 107.7 148.3 107.3C147.6 106.9 147.1 106.3 146.7 105.4C146.3 104.6 146.1 103.6 146.1 102.3C146.1 100.9 146.3 99.8 146.7 99C147.1 98.2 147.6 97.6 148.3 97.1C149 96.7 149.8 96.4 150.8 96.4C151.4 96.4 152 96.5 152.6 96.7C153.1 96.9 153.6 97.2 153.9 97.6C154.2 98 154.4 98.4 154.4 98.8V98.9H153.1V99C153.1 98.7 153 98.5 152.8 98.3C152.6 98.1 152.4 97.9 152 97.8C151.7 97.7 151.3 97.6 150.9 97.6C149.8 97.6 149 98 148.5 98.8C148 99.6 147.7 100.8 147.7 102.2C147.7 103.6 148 104.8 148.6 105.6C149.2 106.4 150 106.9 151 106.9C151.6 106.9 152.3 106.8 153.1 106.5V103.4H150.7V102.3H154.4V107.1H154.2Z" fill="black"/>
<path d="M158 107.6H156.7L161.1 96.8H162.5L166.6 107.6H165.1L164 104.6H159.2L158 107.6ZM159.7 103.6H163.6L161.7 98.6L159.7 103.6Z" fill="black"/>
<path d="M198.6 107.6V96.8H200V106.4H205.7V107.6H198.6Z" fill="black"/>
<path d="M208.2 96.8H209.6V103.8C209.6 104.8 209.7 105.5 209.9 105.8C210.1 106.1 210.4 106.4 210.8 106.6C211.2 106.8 211.7 106.9 212.2 106.9C212.7 106.9 213.1 106.8 213.5 106.6C213.9 106.4 214.2 106.1 214.4 105.7C214.6 105.3 214.7 104.5 214.7 103.2V96.7H216V103.5C216 104.8 215.9 105.7 215.6 106.2C215.3 106.7 214.9 107.1 214.3 107.4C213.8 107.7 213.1 107.8 212.2 107.8C211.4 107.8 210.7 107.7 210.1 107.4C209.5 107.2 209 106.8 208.7 106.3C208.4 105.8 208.2 105 208.2 103.8V96.8Z" fill="black"/>
<path d="M219.9 107.6H218.5L222 102.1L218.8 96.8H220.3L222.7 100.9L225.3 96.8H226.7L223.4 102L226.7 107.6H225.2L222.6 103.2L219.9 107.6Z" fill="black"/>
<path d="M229.3 96.8H230.7V103.8C230.7 104.8 230.8 105.5 231 105.8C231.2 106.1 231.5 106.4 231.9 106.6C232.3 106.8 232.8 106.9 233.3 106.9C233.8 106.9 234.2 106.8 234.6 106.6C235 106.4 235.3 106.1 235.5 105.7C235.7 105.3 235.8 104.5 235.8 103.2V96.7H237.1V103.5C237.1 104.8 237 105.7 236.7 106.2C236.4 106.7 236 107.1 235.4 107.4C234.9 107.7 234.2 107.8 233.3 107.8C232.5 107.8 231.8 107.7 231.2 107.4C230.6 107.2 230.1 106.8 229.8 106.3C229.5 105.8 229.3 105 229.3 103.8V96.8Z" fill="black"/>
<path d="M241.8 107.6H240.4V96.8H243.8C244.6 96.8 245.2 96.9 245.7 97.2C246.2 97.5 246.4 97.8 246.7 98.2C246.9 98.6 247.1 99.1 247.1 99.7C247.1 100.1 247 100.5 246.9 100.9C246.7 101.3 246.5 101.6 246.2 102C245.9 102.3 245.4 102.6 244.8 102.8C245 102.9 245.2 103 245.3 103.2C245.4 103.3 245.6 103.5 245.7 103.8C245.8 104.1 246 104.3 246.1 104.5L247.8 107.7H246.2L244.7 104.9C244.3 104.2 243.9 103.6 243.3 103.1H241.9V107.6H241.8ZM241.8 101.9H243.2C243.8 101.9 244.2 101.8 244.5 101.6C244.8 101.4 245 101.2 245.2 100.8C245.4 100.5 245.5 100.1 245.5 99.7C245.5 99.4 245.4 99.1 245.3 98.8C245.2 98.5 245 98.3 244.7 98.1C244.4 97.9 244 97.8 243.3 97.8H241.8V101.9Z" fill="black"/>
<path d="M254.5 107.6H253.1V102.5L249.6 96.8H251.2L253.9 101.2L256.6 96.8H258L254.5 102.5V107.6Z" fill="black"/>
<path d="M289.6 105.2H291V105.3C291 105.9 291.2 106.3 291.6 106.6C292 106.9 292.6 107 293.3 107C293.9 107 294.4 106.8 294.8 106.5C295.2 106.1 295.4 105.7 295.4 105.1C295.4 104.6 295.2 104.2 294.9 103.9C294.5 103.6 294 103.3 293.3 103L292.7 102.8C291.9 102.5 291.4 102.2 291 101.9C290.6 101.6 290.3 101.2 290.1 100.9C289.9 100.5 289.8 100.1 289.8 99.6C289.8 98.8 290.1 98.1 290.7 97.5C291.3 96.9 292.2 96.7 293.4 96.7C294.5 96.7 295.3 96.9 295.8 97.3C296.3 97.7 296.5 98.2 296.5 98.8V98.9H295.1V98.8C295.1 98.6 295 98.4 294.9 98.3C294.8 98.1 294.5 98 294.3 97.9C294 97.8 293.7 97.8 293.4 97.8C292.7 97.8 292.2 98 291.9 98.3C291.6 98.6 291.4 99 291.4 99.5C291.4 99.8 291.5 100.1 291.6 100.3C291.8 100.6 292 100.8 292.3 101C292.6 101.2 293 101.4 293.7 101.7L294.4 102C295.5 102.5 296.2 103 296.5 103.5C296.9 104 297 104.6 297 105.1C297 105.6 296.9 106.2 296.6 106.7C296.3 107.2 295.9 107.6 295.4 107.9C294.9 108.2 294.2 108.3 293.4 108.3C292.6 108.3 291.9 108.2 291.4 108C290.9 107.8 290.4 107.5 290.2 107C289.7 106.3 289.6 105.8 289.6 105.2Z" fill="black"/>
<path d="M299.8 96.8H301.2V103.8C301.2 104.8 301.3 105.5 301.5 105.8C301.7 106.1 302 106.4 302.4 106.6C302.8 106.8 303.3 106.9 303.8 106.9C304.3 106.9 304.7 106.8 305.1 106.6C305.5 106.4 305.8 106.1 306 105.7C306.2 105.3 306.3 104.5 306.3 103.2V96.7H307.6V103.5C307.6 104.8 307.5 105.7 307.2 106.2C306.9 106.7 306.5 107.1 305.9 107.4C305.4 107.7 304.7 107.8 303.8 107.8C303 107.8 302.3 107.7 301.7 107.4C301.1 107.2 300.6 106.8 300.3 106.3C300 105.8 299.8 105 299.8 103.8V96.8Z" fill="black"/>
<path d="M312.3 107.6H310.9V96.8H312.3V107.6Z" fill="black"/>
<path d="M318.7 107.6V97.9H315V96.8H323.7V97.9H320.1V107.6H318.7Z" fill="black"/>
<path d="M326.4 107.6V96.8H332.5V98H327.8V101.4H331.9V102.5H327.8V106.4H332.9V107.6H326.4Z" fill="black"/>
<path d="M335.8 105.2H337.2V105.3C337.2 105.9 337.4 106.3 337.8 106.6C338.2 106.9 338.8 107 339.5 107C340.1 107 340.6 106.8 341 106.5C341.4 106.1 341.6 105.7 341.6 105.1C341.6 104.6 341.4 104.2 341.1 103.9C340.7 103.6 340.2 103.3 339.5 103L338.9 102.8C338.1 102.5 337.6 102.2 337.2 101.9C336.8 101.6 336.5 101.2 336.3 100.9C336.1 100.5 336 100.1 336 99.6C336 98.8 336.3 98.1 336.9 97.5C337.5 96.9 338.4 96.7 339.6 96.7C340.7 96.7 341.5 96.9 342 97.3C342.5 97.7 342.7 98.2 342.7 98.8V98.9H341.3V98.8C341.3 98.6 341.2 98.4 341.1 98.3C341 98.1 340.7 98 340.5 97.9C340.2 97.8 339.9 97.8 339.6 97.8C338.9 97.8 338.4 98 338.1 98.3C337.8 98.6 337.6 99 337.6 99.5C337.6 99.8 337.7 100.1 337.8 100.3C338 100.6 338.2 100.8 338.5 101C338.8 101.2 339.2 101.4 339.9 101.7L340.6 102C341.7 102.5 342.4 103 342.7 103.5C343.1 104 343.2 104.6 343.2 105.1C343.2 105.6 343.1 106.2 342.8 106.7C342.5 107.2 342.1 107.6 341.6 107.9C341.1 108.2 340.4 108.3 339.6 108.3C338.8 108.3 338.1 108.2 337.6 108C337.1 107.8 336.6 107.5 336.4 107C335.9 106.3 335.8 105.8 335.8 105.2Z" fill="black"/>
</g>
<defs>
<clipPath id="clip0_101_421">
<rect width="458" height="109" fill="white"/>
</clipPath>
</defs>
</svg>
