<svg width="544" height="123" viewBox="0 0 544 123" fill="none" xmlns="http://www.w3.org/2000/svg">
<g clip-path="url(#clip0_123_406)">
<mask id="mask0_123_406" style="mask-type:luminance" maskUnits="userSpaceOnUse" x="0" y="0" width="544" height="123">
<path d="M544 0H0V123H544V0Z" fill="white"/>
</mask>
<g mask="url(#mask0_123_406)">
<path d="M48.2972 70.1342L17.3476 1.86133H0.915039V3.13351C5.64048 3.13351 8.70573 4.10883 10.068 5.97467C11.6938 9.10829 12.3878 12.639 12.0688 16.152V67.0387C12.5238 70.3029 11.7669 73.6202 9.94018 76.3678C7.2407 78.0553 4.10097 78.911 0.915039 78.8274V80.142H26.458V78.8274C23.1603 79.2047 19.8289 78.5052 16.9646 76.8343C15.503 73.7878 14.9277 70.3943 15.3042 67.0387V12.5899H15.5597L46.6368 80.0571H46.9775L81.0347 7.16202H81.2901V66.233C81.6662 69.7128 80.9525 73.2232 79.2468 76.2831C78.0122 77.7673 74.9896 78.5729 70.1364 78.7425V80.0571H98.2335V78.7425C92.9546 78.5305 89.7193 77.8096 88.7401 76.6222C87.2397 73.4218 86.6647 69.8681 87.0798 66.3602V15.6855C86.6836 12.2048 87.3985 8.68827 89.1231 5.63542C91.7662 3.75216 94.995 2.86548 98.2335 3.13351V1.86133H79.9704L48.2972 70.1342Z" fill="black"/>
<path d="M169.966 69.8798C176.531 61.6342 180.103 51.4196 180.103 40.8957C180.103 30.3718 176.531 20.1571 169.966 11.9115C166.859 8.0968 162.912 5.0456 158.431 2.994C153.95 0.942404 149.055 -0.0545381 144.125 0.0803023C139.164 -0.00101545 134.249 1.04068 129.75 3.12684C125.252 5.213 121.288 8.28916 118.156 12.1235C111.372 20.1915 107.757 30.4374 107.982 40.9593C107.693 51.517 111.314 61.8115 118.156 69.8798C121.354 73.6113 125.325 76.6076 129.797 78.6622C134.27 80.7168 139.136 81.7809 144.061 81.7809C148.986 81.7809 153.853 80.7168 158.325 78.6622C162.797 76.6076 166.769 73.6113 169.966 69.8798ZM144.125 79.4635C140.198 79.4845 136.322 78.572 132.82 76.8019C129.318 75.0319 126.291 72.4555 123.989 69.2862C118.132 61.0371 115.279 51.0436 115.9 40.9593C115.385 31.0778 118.007 21.2856 123.393 12.9716C125.75 9.77247 128.825 7.16681 132.373 5.36275C135.921 3.55868 139.843 2.60622 143.827 2.5815C147.81 2.55678 151.744 3.46051 155.315 5.2204C158.885 6.98028 161.993 9.54755 164.389 12.7172C169.95 21.0565 172.653 30.9637 172.095 40.9593C172.705 51.0174 169.917 60.9896 164.176 69.2862C161.91 72.472 158.902 75.0624 155.409 76.8351C151.917 78.6077 148.045 79.5097 144.125 79.4635Z" fill="black"/>
<path d="M197.851 12.8443V66.3602C197.851 71.8729 197.127 75.2229 195.722 76.495C193.073 78.2792 189.877 79.0751 186.697 78.7425V80.0571H212.24V78.7425C208.943 79.0926 205.62 78.395 202.746 76.7495C201.242 73.5051 200.667 69.9095 201.086 66.3602V16.7456H201.001L253.875 81.3293H255.535V15.7703C255.141 12.2625 255.855 8.71966 257.578 5.63542C260.218 3.74535 263.449 2.85796 266.689 3.13351V1.86133H241.146V3.13351C244.383 2.8081 247.62 3.75109 250.171 5.76263C251.974 8.77158 252.722 12.2917 252.299 15.7703V70.3463H252.044L196.744 1.86133H182.142V3.13351C184.267 3.02952 186.389 3.38928 188.359 4.18769C190.33 4.9861 192.102 6.20385 193.551 7.75569C195.118 9.33452 196.556 11.0362 197.851 12.8443Z" fill="black"/>
<path d="M327.694 77.7249C325.643 78.614 323.417 79.0343 321.181 78.9547V80.2692H346.213V78.9547C343.093 78.8938 340.089 77.7715 337.698 75.7743C335.278 72.1455 333.36 68.2089 331.994 64.0703L306.238 0.461914H305.642L279.588 66.8266C278.443 70.1999 276.682 73.3338 274.395 76.071C272.543 77.8872 270.092 78.9721 267.498 79.1242V80.4389H289.422V79.1242C287.147 79.241 284.874 78.8347 282.781 77.9369C282.183 77.5751 281.698 77.0538 281.382 76.4317C281.066 75.8096 280.931 75.1117 280.993 74.4173C281.386 71.3863 282.263 68.4373 283.59 65.6817L288.358 53.3841H321.564L325.821 64.0278C327.311 67.1288 328.344 70.4282 328.886 73.8235C329.003 74.5213 328.957 75.2368 328.75 75.9136C328.543 76.5905 328.182 77.2105 327.694 77.7249ZM289.38 50.7126L304.791 11.1482L320.585 50.7126H289.38Z" fill="black"/>
<path d="M408.921 72.5938C407.378 74.0182 405.57 75.1258 403.597 75.8534C401.625 76.581 399.528 76.9144 397.426 76.8344H375.545C374.771 76.8887 373.998 76.7319 373.308 76.3806C372.618 76.0294 372.037 75.4972 371.628 74.8413C370.72 72.2719 370.358 69.5427 370.564 66.8266V13.3108C370.355 11.8532 370.472 10.3678 370.906 8.96045C371.341 7.5531 372.081 6.25848 373.075 5.16895C376.394 3.60877 380.055 2.90866 383.718 3.13351V1.86133H353.62V3.13351C356.756 2.85914 359.892 3.65139 362.518 5.38099C363.426 6.52431 364.094 7.83824 364.482 9.24438C364.87 10.6505 364.969 12.12 364.774 13.5652V67.0387C365.176 70.3177 364.375 73.6309 362.518 76.3678C359.938 78.2052 356.777 79.0488 353.62 78.7425V80.0571H411.603L418.372 58.8544L417.307 58.5151C415.507 63.7298 412.653 68.5214 408.921 72.5938Z" fill="black"/>
<path d="M425.864 3.13351C429.041 2.85344 432.219 3.64499 434.889 5.38099C436.637 7.73104 437.4 10.6654 437.018 13.5652V68.0988C437.414 71.0986 436.636 74.1352 434.847 76.5799C432.177 78.2837 429.028 79.0865 425.864 78.8697V80.1843H453.961V78.8697C450.725 79.1505 447.475 78.5031 444.596 77.0039C443.077 74.3427 442.464 71.263 442.85 68.226V13.5652C442.658 12.1201 442.758 10.6511 443.146 9.24535C443.533 7.83956 444.2 6.52551 445.107 5.38099C447.748 3.72385 450.846 2.93748 453.961 3.13351V1.86133H425.864V3.13351Z" fill="black"/>
<path d="M535.699 75.5622C533.279 71.9334 531.36 67.9969 529.994 63.8583L504.451 0.249878H503.898L477.716 66.445C476.569 69.8087 474.824 72.9398 472.565 75.6894C470.692 77.4989 468.231 78.5817 465.626 78.7426V80.0571H487.55V78.7426C485.275 78.8594 483.002 78.4531 480.909 77.5552C480.311 77.1935 479.826 76.6721 479.51 76.05C479.194 75.428 479.06 74.7301 479.121 74.0356C479.536 71.0093 480.412 68.0636 481.718 65.3001L486.486 53.0024H519.692L523.949 63.6462C525.439 66.7472 526.472 70.0466 527.014 73.4419C527.148 74.2204 527.076 75.02 526.808 75.763C526.539 76.506 526.082 77.1672 525.482 77.6824C523.43 78.5716 521.204 78.9918 518.968 78.9122V80.2268H544V78.9122C540.934 78.7562 538.01 77.5761 535.699 75.5622ZM487.295 50.5005L502.706 10.9361L518.5 50.5005H487.295Z" fill="black"/>
</g>
<path d="M410.228 116.798C410.228 117.737 410.001 118.536 409.546 119.196C409.092 119.841 408.439 120.34 407.588 120.692C406.752 121.044 405.762 121.22 404.618 121.22C404.032 121.22 403.467 121.191 402.924 121.132C402.396 121.073 401.912 120.993 401.472 120.89C401.032 120.773 400.644 120.633 400.306 120.472V118.58C400.834 118.815 401.487 119.027 402.264 119.218C403.056 119.409 403.87 119.504 404.706 119.504C405.484 119.504 406.136 119.401 406.664 119.196C407.192 118.991 407.588 118.697 407.852 118.316C408.116 117.935 408.248 117.487 408.248 116.974C408.248 116.461 408.138 116.028 407.918 115.676C407.698 115.324 407.317 115.001 406.774 114.708C406.246 114.4 405.506 114.077 404.552 113.74C403.878 113.491 403.284 113.227 402.77 112.948C402.272 112.655 401.854 112.325 401.516 111.958C401.179 111.591 400.922 111.173 400.746 110.704C400.585 110.235 400.504 109.692 400.504 109.076C400.504 108.24 400.717 107.529 401.142 106.942C401.568 106.341 402.154 105.879 402.902 105.556C403.665 105.233 404.538 105.072 405.52 105.072C406.386 105.072 407.178 105.153 407.896 105.314C408.615 105.475 409.268 105.688 409.854 105.952L409.238 107.646C408.696 107.411 408.102 107.213 407.456 107.052C406.826 106.891 406.166 106.81 405.476 106.81C404.816 106.81 404.266 106.905 403.826 107.096C403.386 107.287 403.056 107.558 402.836 107.91C402.616 108.247 402.506 108.643 402.506 109.098C402.506 109.626 402.616 110.066 402.836 110.418C403.056 110.77 403.416 111.085 403.914 111.364C404.413 111.643 405.088 111.943 405.938 112.266C406.862 112.603 407.64 112.97 408.27 113.366C408.916 113.747 409.4 114.209 409.722 114.752C410.06 115.295 410.228 115.977 410.228 116.798Z" fill="black"/>
<path d="M397.872 121H389.094V105.292H397.872V107.03H391.074V111.936H397.476V113.652H391.074V119.262H397.872V121Z" fill="black"/>
<path d="M381.841 121H379.861V107.03H374.955V105.292H386.725V107.03H381.841V121Z" fill="black"/>
<path d="M373.836 121H368.16V119.856L370.008 119.438V106.876L368.16 106.436V105.292H373.836V106.436L371.988 106.876V119.438L373.836 119.856V121Z" fill="black"/>
<path d="M365.268 115.456C365.268 116.541 365.048 117.524 364.608 118.404C364.168 119.269 363.494 119.959 362.584 120.472C361.69 120.971 360.546 121.22 359.152 121.22C357.202 121.22 355.713 120.692 354.686 119.636C353.674 118.565 353.168 117.157 353.168 115.412V105.292H355.148V115.478C355.148 116.754 355.486 117.744 356.16 118.448C356.85 119.152 357.884 119.504 359.262 119.504C360.216 119.504 360.986 119.335 361.572 118.998C362.174 118.646 362.614 118.169 362.892 117.568C363.171 116.952 363.31 116.248 363.31 115.456V105.292H365.268V115.456Z" fill="black"/>
<path d="M350.158 116.798C350.158 117.737 349.931 118.536 349.476 119.196C349.021 119.841 348.369 120.34 347.518 120.692C346.682 121.044 345.692 121.22 344.548 121.22C343.961 121.22 343.397 121.191 342.854 121.132C342.326 121.073 341.842 120.993 341.402 120.89C340.962 120.773 340.573 120.633 340.236 120.472V118.58C340.764 118.815 341.417 119.027 342.194 119.218C342.986 119.409 343.8 119.504 344.636 119.504C345.413 119.504 346.066 119.401 346.594 119.196C347.122 118.991 347.518 118.697 347.782 118.316C348.046 117.935 348.178 117.487 348.178 116.974C348.178 116.461 348.068 116.028 347.848 115.676C347.628 115.324 347.247 115.001 346.704 114.708C346.176 114.4 345.435 114.077 344.482 113.74C343.807 113.491 343.213 113.227 342.7 112.948C342.201 112.655 341.783 112.325 341.446 111.958C341.109 111.591 340.852 111.173 340.676 110.704C340.515 110.235 340.434 109.692 340.434 109.076C340.434 108.24 340.647 107.529 341.072 106.942C341.497 106.341 342.084 105.879 342.832 105.556C343.595 105.233 344.467 105.072 345.45 105.072C346.315 105.072 347.107 105.153 347.826 105.314C348.545 105.475 349.197 105.688 349.784 105.952L349.168 107.646C348.625 107.411 348.031 107.213 347.386 107.052C346.755 106.891 346.095 106.81 345.406 106.81C344.746 106.81 344.196 106.905 343.756 107.096C343.316 107.287 342.986 107.558 342.766 107.91C342.546 108.247 342.436 108.643 342.436 109.098C342.436 109.626 342.546 110.066 342.766 110.418C342.986 110.77 343.345 111.085 343.844 111.364C344.343 111.643 345.017 111.943 345.868 112.266C346.792 112.603 347.569 112.97 348.2 113.366C348.845 113.747 349.329 114.209 349.652 114.752C349.989 115.295 350.158 115.977 350.158 116.798Z" fill="black"/>
<path d="M305.421 121H303.441V107.03H298.535V105.292H310.305V107.03H305.421V121Z" fill="black"/>
<path d="M291.098 105.292C292.403 105.292 293.474 105.461 294.31 105.798C295.16 106.121 295.791 106.612 296.202 107.272C296.612 107.932 296.818 108.761 296.818 109.758C296.818 110.594 296.664 111.291 296.356 111.848C296.048 112.405 295.652 112.853 295.168 113.19C294.698 113.513 294.2 113.769 293.672 113.96L297.984 121H295.674L291.868 114.51H288.744V121H286.764V105.292H291.098ZM290.988 107.008H288.744V112.838H291.098C291.948 112.838 292.645 112.728 293.188 112.508C293.73 112.273 294.126 111.936 294.376 111.496C294.64 111.056 294.772 110.506 294.772 109.846C294.772 109.157 294.632 108.607 294.354 108.196C294.09 107.785 293.679 107.485 293.122 107.294C292.564 107.103 291.853 107.008 290.988 107.008Z" fill="black"/>
<path d="M283.282 113.124C283.282 114.341 283.128 115.449 282.82 116.446C282.512 117.429 282.05 118.279 281.434 118.998C280.833 119.717 280.078 120.267 279.168 120.648C278.274 121.029 277.232 121.22 276.044 121.22C274.812 121.22 273.742 121.029 272.832 120.648C271.923 120.252 271.168 119.702 270.566 118.998C269.965 118.279 269.518 117.421 269.224 116.424C268.931 115.427 268.784 114.319 268.784 113.102C268.784 111.489 269.048 110.081 269.576 108.878C270.104 107.675 270.904 106.737 271.974 106.062C273.06 105.387 274.424 105.05 276.066 105.05C277.636 105.05 278.956 105.387 280.026 106.062C281.097 106.722 281.904 107.661 282.446 108.878C283.004 110.081 283.282 111.496 283.282 113.124ZM270.874 113.124C270.874 114.444 271.058 115.581 271.424 116.534C271.791 117.487 272.356 118.221 273.118 118.734C273.896 119.247 274.871 119.504 276.044 119.504C277.232 119.504 278.2 119.247 278.948 118.734C279.711 118.221 280.276 117.487 280.642 116.534C281.009 115.581 281.192 114.444 281.192 113.124C281.192 111.144 280.782 109.597 279.96 108.482C279.139 107.353 277.841 106.788 276.066 106.788C274.878 106.788 273.896 107.045 273.118 107.558C272.356 108.057 271.791 108.783 271.424 109.736C271.058 110.675 270.874 111.804 270.874 113.124Z" fill="black"/>
<path d="M266.412 116.798C266.412 117.737 266.185 118.536 265.73 119.196C265.275 119.841 264.623 120.34 263.772 120.692C262.936 121.044 261.946 121.22 260.802 121.22C260.215 121.22 259.651 121.191 259.108 121.132C258.58 121.073 258.096 120.993 257.656 120.89C257.216 120.773 256.827 120.633 256.49 120.472V118.58C257.018 118.815 257.671 119.027 258.448 119.218C259.24 119.409 260.054 119.504 260.89 119.504C261.667 119.504 262.32 119.401 262.848 119.196C263.376 118.991 263.772 118.697 264.036 118.316C264.3 117.935 264.432 117.487 264.432 116.974C264.432 116.461 264.322 116.028 264.102 115.676C263.882 115.324 263.501 115.001 262.958 114.708C262.43 114.4 261.689 114.077 260.736 113.74C260.061 113.491 259.467 113.227 258.954 112.948C258.455 112.655 258.037 112.325 257.7 111.958C257.363 111.591 257.106 111.173 256.93 110.704C256.769 110.235 256.688 109.692 256.688 109.076C256.688 108.24 256.901 107.529 257.326 106.942C257.751 106.341 258.338 105.879 259.086 105.556C259.849 105.233 260.721 105.072 261.704 105.072C262.569 105.072 263.361 105.153 264.08 105.314C264.799 105.475 265.451 105.688 266.038 105.952L265.422 107.646C264.879 107.411 264.285 107.213 263.64 107.052C263.009 106.891 262.349 106.81 261.66 106.81C261 106.81 260.45 106.905 260.01 107.096C259.57 107.287 259.24 107.558 259.02 107.91C258.8 108.247 258.69 108.643 258.69 109.098C258.69 109.626 258.8 110.066 259.02 110.418C259.24 110.77 259.599 111.085 260.098 111.364C260.597 111.643 261.271 111.943 262.122 112.266C263.046 112.603 263.823 112.97 264.454 113.366C265.099 113.747 265.583 114.209 265.906 114.752C266.243 115.295 266.412 115.977 266.412 116.798Z" fill="black"/>
<path d="M254.055 121H245.277V105.292H254.055V107.03H247.257V111.936H253.659V113.652H247.257V119.262H254.055V121Z" fill="black"/>
<path d="M235.926 105.292C237.231 105.292 238.302 105.461 239.138 105.798C239.988 106.121 240.619 106.612 241.03 107.272C241.44 107.932 241.646 108.761 241.646 109.758C241.646 110.594 241.492 111.291 241.184 111.848C240.876 112.405 240.48 112.853 239.996 113.19C239.526 113.513 239.028 113.769 238.5 113.96L242.812 121H240.502L236.696 114.51H233.572V121H231.592V105.292H235.926ZM235.816 107.008H233.572V112.838H235.926C236.776 112.838 237.473 112.728 238.016 112.508C238.558 112.273 238.954 111.936 239.204 111.496C239.468 111.056 239.6 110.506 239.6 109.846C239.6 109.157 239.46 108.607 239.182 108.196C238.918 107.785 238.507 107.485 237.95 107.294C237.392 107.103 236.681 107.008 235.816 107.008Z" fill="black"/>
<path d="M198.823 121L196.931 116.138H190.705L188.835 121H186.833L192.971 105.226H194.753L200.869 121H198.823ZM194.577 109.626C194.533 109.509 194.459 109.296 194.357 108.988C194.254 108.68 194.151 108.365 194.049 108.042C193.961 107.705 193.887 107.448 193.829 107.272C193.755 107.565 193.675 107.866 193.587 108.174C193.513 108.467 193.433 108.739 193.345 108.988C193.271 109.237 193.205 109.45 193.147 109.626L191.365 114.378H196.337L194.577 109.626Z" fill="black"/>
<path d="M179.781 112.706H185.215V120.406C184.364 120.685 183.506 120.89 182.641 121.022C181.776 121.154 180.793 121.22 179.693 121.22C178.065 121.22 176.694 120.897 175.579 120.252C174.464 119.592 173.614 118.661 173.027 117.458C172.455 116.241 172.169 114.803 172.169 113.146C172.169 111.503 172.492 110.081 173.137 108.878C173.782 107.675 174.706 106.744 175.909 106.084C177.126 105.409 178.593 105.072 180.309 105.072C181.189 105.072 182.018 105.153 182.795 105.314C183.587 105.475 184.32 105.703 184.995 105.996L184.247 107.712C183.69 107.463 183.059 107.25 182.355 107.074C181.666 106.898 180.947 106.81 180.199 106.81C178.952 106.81 177.882 107.067 176.987 107.58C176.092 108.093 175.41 108.827 174.941 109.78C174.472 110.719 174.237 111.841 174.237 113.146C174.237 114.393 174.435 115.5 174.831 116.468C175.242 117.421 175.88 118.169 176.745 118.712C177.61 119.24 178.747 119.504 180.155 119.504C180.624 119.504 181.035 119.489 181.387 119.46C181.754 119.416 182.084 119.365 182.377 119.306C182.685 119.247 182.971 119.189 183.235 119.13V114.466H179.781V112.706Z" fill="black"/>
<path d="M163.609 105.292C164.915 105.292 165.985 105.461 166.821 105.798C167.672 106.121 168.303 106.612 168.713 107.272C169.124 107.932 169.329 108.761 169.329 109.758C169.329 110.594 169.175 111.291 168.867 111.848C168.559 112.405 168.163 112.853 167.679 113.19C167.21 113.513 166.711 113.769 166.183 113.96L170.495 121H168.185L164.379 114.51H161.255V121H159.275V105.292H163.609ZM163.499 107.008H161.255V112.838H163.609C164.46 112.838 165.157 112.728 165.699 112.508C166.242 112.273 166.638 111.936 166.887 111.496C167.151 111.056 167.283 110.506 167.283 109.846C167.283 109.157 167.144 108.607 166.865 108.196C166.601 107.785 166.191 107.485 165.633 107.294C165.076 107.103 164.365 107.008 163.499 107.008Z" fill="black"/>
<path d="M155.081 121L153.189 116.138H146.963L145.093 121H143.091L149.229 105.226H151.011L157.127 121H155.081ZM150.835 109.626C150.791 109.509 150.717 109.296 150.615 108.988C150.512 108.68 150.409 108.365 150.307 108.042C150.219 107.705 150.145 107.448 150.087 107.272C150.013 107.565 149.933 107.866 149.845 108.174C149.771 108.467 149.691 108.739 149.603 108.988C149.529 109.237 149.463 109.45 149.405 109.626L147.623 114.378H152.595L150.835 109.626Z" fill="black"/>
<path d="M137.158 105.292C139.211 105.292 140.707 105.695 141.646 106.502C142.585 107.309 143.054 108.445 143.054 109.912C143.054 110.557 142.944 111.181 142.724 111.782C142.519 112.369 142.174 112.897 141.69 113.366C141.206 113.835 140.561 114.209 139.754 114.488C138.947 114.752 137.957 114.884 136.784 114.884H134.98V121H133V105.292H137.158ZM136.982 106.986H134.98V113.19H136.564C137.561 113.19 138.39 113.087 139.05 112.882C139.71 112.662 140.201 112.317 140.524 111.848C140.847 111.379 141.008 110.763 141.008 110C141.008 108.988 140.685 108.233 140.04 107.734C139.395 107.235 138.375 106.986 136.982 106.986Z" fill="black"/>
</g>
<defs>
<clipPath id="clip0_123_406">
<rect width="544" height="123" fill="white"/>
</clipPath>
</defs>
</svg>
