<svg width="24" height="24" viewBox="0 0 24 24" fill="none" xmlns="http://www.w3.org/2000/svg">
<g clip-path="url(#clip0_37_302)">
<path d="M12 15C14.0711 15 15.75 13.3211 15.75 11.25C15.75 9.17893 14.0711 7.5 12 7.5C9.92893 7.5 8.25 9.17893 8.25 11.25C8.25 13.3211 9.92893 15 12 15Z" stroke="black" stroke-linecap="round" stroke-linejoin="round"/>
<path d="M5.98145 18.6909C6.54574 17.5794 7.40678 16.6459 8.46914 15.9938C9.5315 15.3418 10.7537 14.9966 12.0002 14.9966C13.2467 14.9966 14.4689 15.3418 15.5312 15.9938C16.5936 16.6459 17.4547 17.5794 18.0189 18.6909" stroke="black" stroke-linecap="round" stroke-linejoin="round"/>
<path d="M16.5 5.25H21" stroke="black" stroke-linecap="round" stroke-linejoin="round"/>
<path d="M18.75 3V7.5" stroke="black" stroke-linecap="round" stroke-linejoin="round"/>
<path d="M20.8749 10.5C21.1914 12.38 20.9021 14.312 20.0489 16.0169C19.1957 17.7217 17.8228 19.1114 16.1283 19.9851C14.4339 20.8588 12.5056 21.1714 10.6219 20.8777C8.73818 20.584 6.99657 19.6992 5.6485 18.3512C4.30044 17.0031 3.41569 15.2615 3.122 13.3778C2.82831 11.4941 3.14089 9.56581 4.01459 7.87135C4.8883 6.17689 6.27792 4.80395 7.98281 3.95076C9.68769 3.09758 11.6196 2.80832 13.4996 3.12473" stroke="black" stroke-linecap="round" stroke-linejoin="round"/>
</g>
<defs>
<clipPath id="clip0_37_302">
<rect width="24" height="24" fill="white"/>
</clipPath>
</defs>
</svg>
