<svg width="42" height="42" viewBox="0 0 42 42" fill="none" xmlns="http://www.w3.org/2000/svg">
<path d="M0.0232668 23.0926C0.515161 28.1079 2.81 32.7767 6.48452 36.2379C10.3902 39.9461 15.5803 42.01 20.9744 42C22.8259 42.0027 24.6699 41.765 26.4597 41.2926C27.5153 40.9993 28.5481 40.6299 29.5499 40.1873C30.9785 39.5521 32.3322 38.7613 33.5864 37.8294C34.7111 36.9781 35.7508 36.0207 36.6913 34.9705C36.7343 34.9404 36.7739 34.9058 36.8096 34.8673C37.0019 34.6768 37.1707 34.4641 37.3123 34.2337C37.8084 33.6382 38.2676 33.0132 38.6874 32.3621C39.9846 30.3779 40.9252 28.1837 41.4671 25.8779C41.834 24.2731 42.0126 22.6312 41.9993 20.9853C41.9993 20.44 41.9993 19.88 41.9993 19.3347C41.9993 19.0547 41.9993 18.7895 41.9106 18.5095C41.9093 18.2904 41.8795 18.0725 41.8219 17.8611C41.8219 17.5958 41.7479 17.3305 41.7036 17.0653C41.2578 14.7651 40.4335 12.5542 39.264 10.5221C38.5808 9.33394 37.7783 8.21804 36.8688 7.19158C34.8915 4.93495 32.4529 3.1258 29.7167 1.88546C26.9805 0.645117 24.0098 0.00225433 21.0039 0H20.6787C19.1853 0.0302889 17.699 0.213012 16.243 0.545278C15.6072 0.692646 14.9714 0.884218 14.3356 1.09053C13.6998 1.29685 13.0197 1.57686 12.3839 1.85685C12.0143 2.01896 11.6595 2.1958 11.3046 2.38738C8.02999 4.10431 5.26239 6.64436 3.27609 9.7558L3.08388 10.0653C1.08724 13.3436 0.0335614 17.106 0.0380667 20.941C-0.00714171 21.6574 -0.0120924 22.3757 0.0232668 23.0926ZM12.6353 7.54527C12.8312 7.18227 12.9802 6.79605 13.0789 6.3958C13.3405 5.03559 13.2281 3.63015 12.7536 2.32842C13.1823 2.13684 13.6259 1.96001 14.0695 1.81265C14.1113 3.13582 14.4714 4.42964 15.1193 5.58527C15.2376 5.77685 15.3559 5.95368 15.4889 6.13053C15.3037 7.23287 14.8513 8.2735 14.1711 9.16208C13.4909 10.0507 12.6034 10.7603 11.5855 11.2295C11.0479 11.4931 10.4949 11.7244 9.92957 11.9221C9.12392 12.1783 8.35394 12.5348 7.63783 12.9832C8.19684 12.3557 8.81035 11.7788 9.47122 11.2589C10.6878 10.3161 11.6947 9.13183 12.4283 7.78104C12.5063 7.71078 12.5758 7.63166 12.6353 7.54527ZM39.2492 11.9663C39.9727 13.4152 40.5235 14.9435 40.8904 16.52C40.5017 16.1801 40.0028 15.9917 39.4858 15.9895C38.9564 15.9895 38.4487 16.1991 38.0743 16.5722C37.7 16.9453 37.4898 17.4513 37.4898 17.9789C37.5201 18.4037 37.7139 18.8003 38.0308 19.0859C38.3476 19.3715 38.763 19.524 39.19 19.5116V18.9221C38.9077 18.9221 38.637 18.8103 38.4373 18.6113C38.2377 18.4123 38.1255 18.1425 38.1255 17.8611C38.1445 17.4831 38.3086 17.1269 38.5839 16.8663C38.8591 16.6057 39.2244 16.4606 39.6041 16.461C40.0074 16.491 40.3901 16.651 40.6942 16.9169C40.9983 17.1827 41.2073 17.54 41.2896 17.9347C41.2896 18.1263 41.2896 18.3179 41.2896 18.4947C41.2905 18.7876 41.2305 19.0775 41.1135 19.3461C40.9965 19.6147 40.8249 19.8563 40.6097 20.0556C40.3944 20.255 40.14 20.4077 39.8626 20.5043C39.5852 20.6009 39.2908 20.6392 38.9978 20.6168C38.2135 20.6168 37.4614 20.3063 36.9069 19.7536C36.3523 19.2008 36.0407 18.4512 36.0407 17.6695C36.0969 17.1459 36.0114 16.6169 35.793 16.1374C35.5746 15.658 35.2313 15.2456 34.7988 14.9431C34.2854 14.6875 33.7123 14.5745 33.1399 14.616C32.5675 14.6575 32.0169 14.852 31.546 15.1789C31.3776 15.2508 31.2145 15.3346 31.058 15.4295C30.3992 15.8271 29.664 16.0825 28.8999 16.179C28.1358 16.2754 27.3598 16.2109 26.6224 15.9895C28.1282 15.6442 29.4941 14.8531 30.5406 13.72C31.01 13.2722 31.6043 12.9764 32.2454 12.8712C32.8866 12.766 33.5447 12.8564 34.1334 13.1305C35.0164 13.481 35.9867 13.5502 36.9108 13.3285C37.8348 13.1068 38.6672 12.6052 39.2935 11.8926L39.2492 11.9663ZM30.0674 13.44C29.3791 14.2745 28.4765 14.9072 27.4558 15.2705C26.435 15.6339 25.3345 15.7143 24.2715 15.5032H23.961L23.7393 15.4295C21.3337 14.3432 19.4239 12.3977 18.3869 9.97684L18.7122 10.2126C21.6693 12.7179 23.1478 13.381 24.4785 13.381C25.0929 13.354 25.7002 13.2399 26.2823 13.0421C27.9111 12.5248 29.6423 12.4134 31.3242 12.7179C30.908 12.8451 30.5175 13.0447 30.1709 13.3074L30.0674 13.44ZM17.4997 9.13685C18.2301 11.5872 19.7998 13.7045 21.9354 15.12C21.2539 15.0895 20.5739 15.2053 19.9413 15.4595C19.3086 15.7138 18.7382 16.1006 18.2686 16.5937L18.727 16.9621C19.3757 16.3445 20.1881 15.9248 21.0683 15.7524C21.9486 15.5801 22.86 15.6623 23.6949 15.9895L24.0793 16.0926C25.3007 16.5444 26.5799 16.8223 27.8792 16.9179H28.3079C30.0083 17.0211 30.1561 19.0695 30.1561 19.7032C30.1996 20.0405 30.1649 20.3833 30.0547 20.7052C29.9445 21.0271 29.7616 21.3195 29.5203 21.56C29.2791 21.8005 28.9857 21.9827 28.6628 22.0925C28.3398 22.2024 27.9958 22.237 27.6574 22.1937C27.3188 22.1951 26.99 22.0807 26.7259 21.8695C26.5451 21.7127 26.4021 21.5173 26.3074 21.2979C26.2127 21.0785 26.1687 20.8407 26.1788 20.6021C26.1536 20.3943 26.1731 20.1834 26.236 19.9837C26.299 19.784 26.4039 19.5999 26.5438 19.4437C26.6837 19.2876 26.8554 19.1629 27.0474 19.078C27.2394 18.9932 27.4473 18.95 27.6574 18.9516C27.8227 18.9573 27.9849 18.9985 28.1329 19.0722C28.2808 19.146 28.4111 19.2506 28.5149 19.3789C28.5667 19.4766 28.5938 19.5853 28.5938 19.6958C28.5938 19.8062 28.5667 19.915 28.5149 20.0126L29.062 20.2189C29.1449 20.032 29.1789 19.8271 29.1608 19.6235C29.1427 19.4199 29.0731 19.2242 28.9585 19.0547C28.8008 18.8459 28.598 18.6752 28.3651 18.5553C28.1321 18.4354 27.8751 18.3694 27.6131 18.3621C27.3264 18.3636 27.043 18.4233 26.7802 18.5374C26.5174 18.6514 26.2806 18.8176 26.0842 19.0257C25.8879 19.2339 25.736 19.4797 25.6379 19.7481C25.5398 20.0166 25.4974 20.3021 25.5134 20.5874L25.41 24.4631C25.3963 25.2809 25.3023 26.0953 25.1291 26.8947C25.0819 27.1396 25.0177 27.3809 24.9369 27.6168C24.0941 29.7979 22.2607 31.2716 18.6382 32.701C18.1619 32.8811 17.636 32.8811 17.1597 32.701C14.9774 31.994 13.0433 30.68 11.5855 28.9137C11.4103 28.6775 11.2569 28.4259 11.1272 28.1621C10.2928 26.052 9.88576 23.7981 9.92957 21.5305C9.98867 20.5036 9.7527 19.4811 9.2494 18.5831C8.90739 17.9346 8.68227 17.2314 8.58413 16.5053C10.1514 16.1368 13.3893 15.6653 14.9714 17.4042C16.169 18.7305 16.169 21.1032 14.9714 24.4484L14.868 24.7284L15.1636 24.8316C15.7364 24.9905 16.3285 25.0698 16.9231 25.0674C17.4934 25.0702 18.0611 24.9908 18.6086 24.8316L18.4312 24.2716C17.5136 24.4981 16.5544 24.4981 15.6367 24.2716C16.8196 20.8674 16.7457 18.3768 15.4298 16.9031C13.6703 14.9579 10.2696 15.4295 8.55453 15.7832C8.57962 14.6763 8.87927 13.5928 9.42682 12.6295L10.0922 12.3789C10.6785 12.1801 11.2515 11.9438 11.8074 11.6716C12.8054 11.1928 13.6895 10.5075 14.4009 9.66126C15.1122 8.81505 15.6343 7.82743 15.9325 6.76422C16.3465 7.59168 16.8907 8.34786 17.5441 9.0042L17.4997 9.13685ZM16.6718 40.6294C16.5041 40.4649 16.371 40.2688 16.2801 40.0524C16.1892 39.8361 16.1425 39.604 16.1425 39.3695C16.1425 39.1349 16.1892 38.9028 16.2801 38.6864C16.371 38.4701 16.5041 38.274 16.6718 38.1094C16.9434 37.865 17.2964 37.7298 17.6624 37.7298C18.0283 37.7298 18.3814 37.865 18.653 38.1094C18.7533 38.2044 18.833 38.3187 18.8875 38.4454C18.942 38.5721 18.9702 38.7084 18.9702 38.8463C18.9702 38.9841 18.942 39.1205 18.8875 39.2472C18.833 39.3738 18.7533 39.4881 18.653 39.5831L19.067 40.0105C19.2212 39.8596 19.3438 39.6796 19.4274 39.4809C19.5111 39.2823 19.5541 39.0691 19.5541 38.8537C19.5541 38.6382 19.5111 38.425 19.4274 38.2264C19.3438 38.0277 19.2212 37.8477 19.067 37.6968C18.6896 37.3348 18.1861 37.1326 17.6624 37.1326C17.1386 37.1326 16.6352 37.3348 16.2578 37.6968C16.0392 37.9144 15.8657 38.1729 15.7474 38.4574C15.6291 38.7418 15.5682 39.0468 15.5682 39.3547C15.5682 39.6627 15.6291 39.9676 15.7474 40.2521C15.8657 40.5366 16.0392 40.795 16.2578 41.0126C14.5223 40.6005 12.8474 39.9665 11.275 39.1263C12.9458 35.5894 13.3746 33.4379 13.0641 31.7579C14.4226 33.1955 16.0633 34.3392 17.8842 35.1179C18.6651 35.4546 19.3963 35.8958 20.0576 36.4294C20.3348 36.7034 20.5548 37.0294 20.7049 37.3886C20.855 37.7478 20.9323 38.133 20.9323 38.5221C20.9323 38.9112 20.855 39.2964 20.7049 39.6556C20.5548 40.0147 20.3348 40.3407 20.0576 40.6147C19.5952 41.0332 18.987 41.2551 18.3628 41.233C17.7386 41.211 17.1477 40.9468 16.7162 40.4968L16.6718 40.6294ZM8.49542 29.7389C7.95424 28.8542 7.69637 27.8261 7.75614 26.7916C7.84154 25.8897 8.20275 25.0357 8.79105 24.3452C9.02993 24.0342 9.24257 23.7039 9.42682 23.3579C9.51839 25.104 9.9189 26.8202 10.6097 28.4274C10.7692 28.7183 10.9469 28.9988 11.142 29.2673C11.3072 29.5019 11.4901 29.7236 11.689 29.9305C12.8275 31.8021 13.0346 33.8653 10.7132 38.7726C9.4099 38.0194 8.1906 37.1302 7.07598 36.12C8.20937 35.2227 8.96384 33.9343 9.19029 32.5095C9.28603 31.4976 9.05832 30.4814 8.53973 29.6063L8.49542 29.7389ZM9.01287 10.9495C7.93395 11.6837 7.04467 12.6619 6.41765 13.8042C5.79064 14.9466 5.44368 16.2205 5.40521 17.5221C5.40521 20.4695 3.69009 22.2084 2.16718 23.7116L1.82714 24.0358C1.42944 24.4558 1.1313 24.9594 0.95476 25.5095C0.79212 24.7579 0.673836 24.0358 0.585123 23.2253C1.37035 22.1474 1.99301 20.9608 2.43331 19.7032C2.87718 18.4445 3.09246 17.1171 3.06908 15.7832C2.98756 14.8303 3.21006 13.8762 3.70484 13.0568C4.78822 11.6314 6.37308 10.6678 8.14049 10.36C8.94752 10.1436 9.73416 9.85763 10.4914 9.50527C10.0359 9.96633 9.55716 10.4041 9.05718 10.8168L9.01287 10.9495ZM3.09868 31.2863C2.7601 30.7219 2.45884 30.1361 2.19678 29.5326C2.67514 29.8607 3.2425 30.0355 3.82315 30.0337C4.60616 30.0304 5.35594 29.7177 5.90796 29.1642C6.13282 28.941 6.31124 28.6758 6.43299 28.3837C6.55474 28.0916 6.61736 27.7784 6.61736 27.4621C6.61736 27.1458 6.55474 26.8326 6.43299 26.5405C6.31124 26.2484 6.13282 25.9832 5.90796 25.76C5.53419 25.391 5.02938 25.184 4.50332 25.184C3.97725 25.184 3.47244 25.391 3.09868 25.76C2.944 25.9122 2.82116 26.0934 2.73734 26.2933C2.65352 26.4931 2.61037 26.7076 2.61037 26.9242C2.61037 27.1408 2.65352 27.3553 2.73734 27.5551C2.82116 27.755 2.944 27.9362 3.09868 28.0884L3.51262 27.6758C3.3176 27.4798 3.20823 27.2149 3.20823 26.9389C3.20823 26.6629 3.3176 26.3981 3.51262 26.2021C3.78431 25.9577 4.13734 25.8224 4.50332 25.8224C4.86929 25.8224 5.22223 25.9577 5.49392 26.2021C5.66291 26.3704 5.797 26.5703 5.88846 26.7903C5.97992 27.0103 6.02699 27.2461 6.02699 27.4842C6.02699 27.7223 5.97992 27.9581 5.88846 28.1781C5.797 28.3981 5.66291 28.598 5.49392 28.7663C5.27558 28.9842 5.01632 29.1571 4.73091 29.275C4.44549 29.3929 4.13952 29.4536 3.83055 29.4536C3.52158 29.4536 3.21561 29.3929 2.93019 29.275C2.64478 29.1571 2.38552 28.9842 2.16718 28.7663C1.88099 28.4914 1.65333 28.1617 1.49785 27.7971C1.34236 27.4325 1.26222 27.0404 1.26222 26.6442C1.26222 26.248 1.34236 25.8559 1.49785 25.4913C1.65333 25.1267 1.88099 24.797 2.16718 24.5221L2.49251 24.1831C4.08934 22.6063 5.90796 20.8232 5.90796 17.6105C5.90999 16.8478 6.08217 16.0952 6.41206 15.407C6.74194 14.7188 7.22122 14.1123 7.81525 13.6316C8.0435 13.4847 8.28048 13.3519 8.52493 13.2337C8.06147 14.2287 7.84835 15.3212 7.90396 16.4168C7.97673 17.3046 8.23351 18.1677 8.65804 18.9516C9.1084 19.745 9.3237 20.6495 9.279 21.56C9.25901 21.9906 9.16395 22.4145 8.99807 22.8126C8.80049 23.2678 8.54182 23.6941 8.2292 24.08C7.5807 24.851 7.18817 25.8035 7.10558 26.8063C7.09776 27.8782 7.40622 28.9288 7.99267 29.8273C8.46729 30.5735 8.69005 31.4513 8.62844 32.3326C8.41944 33.627 7.72104 34.7924 6.67674 35.5895C5.32022 34.2801 4.15556 32.7868 3.21698 31.1537L3.09868 31.2863ZM19.8211 41.381C20.055 41.2544 20.2733 41.1011 20.4716 40.9242C20.8047 40.5953 21.069 40.204 21.2494 39.7727C21.4299 39.3414 21.5228 38.8788 21.5228 38.4115C21.5228 37.9443 21.4299 37.4817 21.2494 37.0504C21.069 36.6191 20.8047 36.2278 20.4716 35.8989C19.7779 35.2924 18.995 34.7954 18.1503 34.4252C16.5438 33.7118 15.0809 32.7131 13.833 31.4779C14.8348 32.1029 15.8943 32.6309 16.9971 33.0547C17.3109 33.1847 17.6479 33.2498 17.9877 33.2463C18.3224 33.2471 18.654 33.182 18.9635 33.0547C22.1128 31.8021 23.9758 30.5053 25.0404 28.7516C25.1212 29.1744 25.2248 29.5925 25.3508 30.0042C25.7311 30.8752 25.864 31.8335 25.7353 32.7747C25.7353 33.0547 25.5874 33.3347 25.5134 33.6295C25.0656 34.789 24.8773 36.032 24.9616 37.2716C25.0459 38.5112 25.4007 39.7176 26.0014 40.8063C24.3808 41.206 22.7177 41.4089 21.0483 41.4105L19.8211 41.381ZM29.3133 39.6568C28.4042 40.0497 27.4709 40.3845 26.5189 40.6589C25.9219 39.6233 25.5655 38.4675 25.4759 37.2764C25.3863 36.0854 25.5659 34.8895 26.0014 33.7768C26.0901 33.4821 26.1641 33.1874 26.238 32.9221C26.3934 31.9294 26.2864 30.9136 25.9275 29.9747C25.6392 29.2499 25.5375 28.4646 25.6318 27.6905C25.7207 27.4408 25.7899 27.1846 25.8388 26.9242C25.9839 26.2399 26.0729 25.545 26.1049 24.8463C26.5372 26.6722 27.3817 28.3758 28.5741 29.8273C29.0447 30.2624 29.4024 30.8048 29.6162 31.4081C29.83 32.0114 29.8934 32.6574 29.8013 33.2905C29.6892 33.8448 29.5411 34.3912 29.3577 34.9263C28.9901 35.6408 28.8579 36.4528 28.98 37.2465C29.1021 38.0403 29.4722 38.7754 30.0378 39.3474L29.3133 39.6568ZM33.2315 37.3579C32.3885 37.9844 31.4988 38.5461 30.5702 39.0379C30.0424 38.5353 29.6933 37.8751 29.5759 37.157C29.4585 36.439 29.5792 35.7025 29.9196 35.0589C30.1151 34.5014 30.2683 33.9299 30.3779 33.3495C30.4837 32.6355 30.4183 31.9066 30.187 31.2227C29.9557 30.5388 29.5651 29.9192 29.0472 29.4147C27.3241 27.3374 26.3551 24.7411 26.2971 22.0463C26.4928 22.2344 26.7247 22.381 26.9788 22.4773C27.233 22.5735 27.504 22.6174 27.7757 22.6063C28.5285 22.63 29.2677 22.4018 29.8752 21.9579C29.7376 22.2411 29.5846 22.5166 29.4168 22.7831C28.9656 23.4114 28.718 24.1622 28.7072 24.9347C28.7072 26.1137 29.7421 26.9389 30.6441 27.5137C31.4978 28.0251 32.4253 28.4029 33.3941 28.6337C34.5222 28.8612 35.5747 29.368 36.4547 30.1074C37.0204 30.676 37.339 31.4435 37.3418 32.2442C37.3426 32.8047 37.1782 33.353 36.8688 33.821C36.6914 34.0421 36.5139 34.2631 36.3216 34.4694C35.8789 34.8665 35.2993 35.0776 34.704 35.0584C34.1087 35.0391 33.544 34.7911 33.128 34.3663C32.9565 34.1999 32.8207 34.0004 32.7292 33.7799C32.6377 33.5595 32.5923 33.3228 32.5958 33.0842C32.5929 32.8435 32.6385 32.6047 32.7299 32.382C32.8214 32.1592 32.9567 31.957 33.128 31.7874C33.3997 31.543 33.7526 31.4077 34.1186 31.4077C34.4846 31.4077 34.8376 31.543 35.1093 31.7874C35.3008 31.9851 35.4078 32.2493 35.4078 32.5242C35.4078 32.7991 35.3008 33.0632 35.1093 33.261L35.5233 33.6737C35.6779 33.5215 35.8008 33.3402 35.8846 33.1404C35.9684 32.9405 36.0116 32.7261 36.0116 32.5095C36.0116 32.2928 35.9684 32.0784 35.8846 31.8785C35.8008 31.6787 35.6779 31.4974 35.5233 31.3452C35.147 30.9754 34.6397 30.768 34.1112 30.768C33.5827 30.768 33.0755 30.9754 32.6993 31.3452C32.2523 31.7998 32.0019 32.4109 32.0019 33.0473C32.0019 33.6838 32.2523 34.2949 32.6993 34.7494C33.2537 35.2975 34.0031 35.6048 34.784 35.6042C34.9314 35.6195 35.0801 35.6195 35.2275 35.6042C34.6076 36.2382 33.9404 36.8244 33.2315 37.3579ZM37.8594 32.5242C37.8594 32.4505 37.8594 32.3916 37.8594 32.3326C37.8601 31.8586 37.7663 31.3891 37.5836 30.9515C37.4009 30.5138 37.1327 30.1167 36.7948 29.7831C35.8529 28.9563 34.7116 28.3876 33.4829 28.1326C32.5729 27.9072 31.701 27.5497 30.8954 27.0716C30.1118 26.5705 29.2246 25.8779 29.2246 24.9789C29.2404 24.312 29.4568 23.6651 29.8457 23.1221C30.4633 22.2295 30.7933 21.1706 30.7919 20.0863V19.5116C30.8469 18.5449 30.5356 17.5929 29.9196 16.8442C31.7382 17.1389 32.7879 17.9053 33.0097 19.1431C33.2105 21.3124 34.2305 23.3246 35.8633 24.7726C36.8567 25.6191 37.6072 26.7128 38.0383 27.9425C38.4695 29.1721 38.5659 30.4937 38.3177 31.7726L38.1846 31.9937C38.0959 32.2147 37.9629 32.3621 37.8594 32.5242ZM34.2665 21.6632C35.4711 22.6146 36.8458 23.3297 38.3177 23.7705C38.8635 23.9252 39.3719 24.1892 39.8117 24.5465C40.2515 24.9038 40.6135 25.3468 40.8756 25.8484C40.4597 27.5377 39.8286 29.1671 38.9978 30.6968C39.0549 29.5192 38.8438 28.344 38.3804 27.2594C37.9169 26.1747 37.213 25.2086 36.3216 24.4337C35.4815 23.6352 34.7862 22.6978 34.2665 21.6632ZM41.4523 21.0147C41.4462 22.3458 41.3125 23.6732 41.053 24.9789C40.4091 24.1579 39.5338 23.5473 38.5395 23.2253C35.4197 22.0316 34.0152 21.4126 33.6012 19.0989C33.3498 17.6253 32.2704 16.7705 30.4074 16.3874C30.7104 16.2549 31.0065 16.1074 31.2946 15.9453C31.4265 15.8608 31.5649 15.7868 31.7086 15.7242L31.6051 15.4442L31.7382 15.7095C32.1258 15.438 32.5772 15.2709 33.0487 15.2244C33.5202 15.1779 33.9957 15.2537 34.4291 15.4442C34.7694 15.7 35.0369 16.0398 35.2054 16.4299C35.3739 16.8201 35.4377 17.2473 35.3902 17.6695C35.3902 18.6231 35.7703 19.5377 36.4469 20.2121C37.1235 20.8864 38.041 21.2653 38.9978 21.2653C39.4644 21.2722 39.926 21.169 40.3449 20.9641C40.7637 20.7592 41.1279 20.4584 41.4079 20.0863C41.4226 20.3958 41.4523 20.7053 41.4523 20.9853V21.0147ZM39.0422 11.3326C38.4954 12.0274 37.7345 12.5235 36.8768 12.7446C36.0191 12.9656 35.1122 12.8993 34.296 12.5558C29.7717 11.2589 27.7165 11.8484 26.2084 12.2758C24.7003 12.7031 23.8132 12.9389 21.4031 11.2737C22.0252 11.47 22.6728 11.5743 23.3252 11.5831C23.6389 11.5886 23.9519 11.554 24.2567 11.48C25.1502 11.2336 25.9099 10.6458 26.371 9.84421C27.1103 8.87158 27.6426 8.17895 29.6239 9.06316C32.2557 10.2421 33.5272 9.69684 36.6026 8.38526L37.0166 8.20842C37.6912 9.03888 38.2993 9.92089 38.8352 10.8463C38.8204 10.9937 38.9091 11.1705 39.0422 11.3326ZM36.4399 7.60421C36.4819 7.63628 36.5171 7.67636 36.5435 7.72211L36.2921 7.82527C33.2167 9.13685 32.1817 9.59367 29.8013 8.51789C27.4208 7.4421 26.5928 8.51789 25.824 9.49052C25.6426 9.84224 25.392 10.154 25.0871 10.4071C24.7823 10.6603 24.4295 10.8498 24.0497 10.9642C23.1809 11.0739 22.2989 11.0119 21.4541 10.7818C20.6093 10.5517 19.8183 10.158 19.1262 9.62315C18.3595 9.08013 17.6897 8.4126 17.1449 7.64842C17.9928 8.15635 18.9649 8.4215 19.9542 8.41474H20.3238C20.8832 8.38647 21.4335 8.26182 21.9502 8.04632C22.1388 7.96006 22.3215 7.86161 22.4972 7.75159L23.1034 7.35369C25.0994 6.05684 26.2971 5.26105 29.3725 6.42526L29.6239 6.52843C30.0599 6.69404 30.5184 6.79339 30.9841 6.82316C31.1023 6.83024 31.2208 6.83024 31.3389 6.82316H31.6939C32.7592 6.73431 33.7978 6.44424 34.7544 5.96842C35.3348 6.47938 35.883 7.02569 36.3956 7.60421H36.4399ZM34.2517 5.45264C33.2347 5.95728 32.1038 6.19081 30.9693 6.13053C29.8013 5.74027 28.7734 5.01797 28.0122 4.05263L27.7609 3.77265C26.824 2.59078 25.6761 1.59156 24.375 0.825281C28.0125 1.45149 31.411 3.05091 34.2073 5.45264H34.2517ZM16.3169 1.14947C17.1452 0.959501 17.9848 0.821687 18.8305 0.736841C18.3431 1.09757 17.9465 1.56623 17.6719 2.10585C17.3974 2.64547 17.2524 3.24129 17.2484 3.84631C17.2484 4.628 17.5599 5.37768 18.1145 5.93042C18.669 6.48316 19.4212 6.79368 20.2055 6.79368C20.8461 6.79369 21.4606 6.54108 21.9149 6.09102C22.3692 5.64095 22.6264 5.03002 22.6303 4.39159C22.6303 3.86395 22.42 3.3579 22.0457 2.98481C21.6713 2.61171 21.1636 2.40211 20.6343 2.40211C20.1951 2.40211 19.7739 2.57599 19.4633 2.88553C19.1528 3.19506 18.9783 3.61488 18.9783 4.05263H19.5697C19.5697 3.77122 19.6819 3.50135 19.8815 3.30236C20.0812 3.10338 20.3519 2.99157 20.6343 2.99157C21.0139 2.9911 21.3792 3.13622 21.6545 3.39685C21.9297 3.65748 22.0938 4.01366 22.1128 4.39159C22.1089 4.87368 21.914 5.33469 21.5706 5.67421C21.2272 6.01372 20.7631 6.20423 20.2794 6.20421C19.6559 6.20421 19.058 5.95735 18.6171 5.51792C18.1763 5.0785 17.9285 4.48251 17.9285 3.86106C17.9233 3.06528 18.2132 2.29563 18.7427 1.69994C19.2721 1.10425 20.0037 0.724523 20.7969 0.633695H21.0335C23.3844 0.633695 25.2178 1.68002 27.3764 4.18528L27.5983 3.99369L27.3912 4.20001L27.6574 4.46526C27.9679 4.78947 28.3079 5.14316 28.6776 5.46737C26.0014 4.73053 24.6411 5.6 22.8521 6.77895L22.2607 7.1621C22.1109 7.25971 21.9526 7.34356 21.7876 7.41262C21.3193 7.61166 20.8178 7.72163 20.309 7.73684C19.3912 7.80023 18.4738 7.60603 17.6611 7.17624C16.8483 6.74646 16.1726 6.09831 15.7107 5.30527C15.0841 4.17679 14.7488 2.91076 14.7349 1.62106C15.1784 1.42948 15.7254 1.2821 16.2725 1.14947H16.3169ZM10.9498 3.30106C10.836 3.70304 10.672 4.08921 10.4618 4.45053C9.61378 5.78702 8.32098 6.78346 6.80985 7.26527C6.30444 7.47953 5.81088 7.72056 5.3313 7.98736C6.90673 6.10178 8.8099 4.51436 10.9498 3.30106ZM3.55702 10.4484C3.60802 10.3378 3.67259 10.2338 3.74924 10.1389C4.59448 9.05635 5.7414 8.24639 7.04638 7.81052C8.65891 7.27584 10.0374 6.20376 10.9498 4.77474C11.2686 4.19697 11.5025 3.57662 11.6446 2.93264L12.2657 2.6379C12.6801 3.81008 12.782 5.06942 12.5614 6.29263C12.4095 6.72979 12.2216 7.15369 11.9996 7.56C11.0082 8.73414 9.6296 9.51783 8.11098 9.77052C6.17616 10.089 4.44189 11.1462 3.27609 12.7179C2.71941 13.6283 2.46585 14.6909 2.55162 15.7537C2.57525 17.0214 2.37503 18.2834 1.96016 19.4821C1.60706 20.4539 1.14584 21.3832 0.585123 22.2526C0.585123 21.8695 0.585123 21.4716 0.585123 21.0737C0.549424 17.326 1.54674 13.6405 3.46831 10.4189L3.55702 10.4484Z" fill="black"/>
</svg>
